<svg width="2957" height="1360" viewBox="0 0 2957 1360" fill="none" xmlns="http://www.w3.org/2000/svg">
<g clip-path="url(#clip0_912_2280)">
<path d="M2951.79 1343.39H2890.4C2868.97 1325.79 2848.32 1306.25 2826.68 1289.04C2814.95 1279.71 2806.39 1273.33 2791.08 1272.42C2781.85 1271.88 2764.43 1271.33 2755.63 1272.42C2754.79 1272.53 2754.15 1272.49 2753.66 1273.35V1343.4H2711.4V1160.02H2888.12C2917.64 1161.72 2942.45 1178.04 2944.39 1211.39C2946.38 1245.71 2927.42 1265.47 2896.04 1269.37C2890.18 1270.09 2882.64 1269.22 2877.41 1270.18C2873.17 1270.97 2873.17 1274.7 2875.83 1277.58L2951.79 1343.39ZM2753.66 1233.36H2888.7C2889.36 1233.36 2894.18 1231.59 2895.1 1231.09C2903.79 1226.31 2904.58 1209.68 2897.25 1203.32C2894.6 1201.04 2889.19 1199.1 2885.84 1199.1H2754.52L2753.66 1200V1233.37V1233.36Z" fill="#003080"/>
<mask id="mask0_912_2280" style="mask-type:luminance" maskUnits="userSpaceOnUse" x="0" y="-1" width="2958" height="1048">
<path d="M2957.01 -0.21875L0.0107422 -0.21875L0.0107422 1046.08H2957.01V-0.21875Z" fill="white"/>
</mask>
<g mask="url(#mask0_912_2280)">
<path d="M2938.4 974.359V1046.38H28.3385V974.359H2938.57H2938.4Z" fill="#D70C0C"/>
<path d="M439.057 816.627V476.686C439.057 414.845 422.368 368.187 388.987 336.896C355.606 305.605 307.967 289.867 246.248 289.867C180.181 289.867 129.241 305.976 93.2518 338.007C57.263 370.037 35.7044 415.215 28.4023 473.168H81.7771C87.5143 429.102 103.857 395.588 130.806 372.816C157.58 350.042 196.177 338.563 246.248 338.563C291.278 338.563 325.703 349.672 349.694 371.705C373.688 393.737 385.683 427.622 385.683 473.168V489.463C385.683 503.348 383.423 514.644 378.556 523.161C373.86 531.678 365.516 538.344 353.519 543.527C341.523 548.525 325.005 552.785 303.968 556.303C282.932 559.82 255.637 563.152 222.256 566.115C192.526 569.263 164.36 573.892 137.933 580.003C111.333 586.296 87.8622 595.741 67.1728 608.516C46.4835 621.292 30.1408 638.882 18.1446 661.285C6.14829 683.69 0.237061 712.757 0.237061 748.307C0.237061 776.081 4.93126 800.52 14.3197 821.443C23.7081 842.364 36.7475 859.954 53.6119 874.212C70.3024 888.47 89.7748 899.393 111.855 906.615C134.109 914.021 158.101 917.538 184.354 917.538C213.389 917.538 238.599 914.021 259.983 907.169C281.367 900.132 299.97 891.616 315.617 881.061C331.266 870.694 344.48 859.029 355.431 846.255C366.386 833.478 375.773 821.443 383.77 809.778H387.073V823.664C387.073 842.92 387.943 859.029 389.856 871.805C391.595 884.579 395.071 894.763 400.287 902.542H456.964V899.023C452.62 895.133 448.621 886.989 444.97 874.582C441.32 862.177 439.581 842.92 439.581 816.627H439.057ZM385.683 689.058C385.683 711.463 381.511 733.496 373.165 755.159C364.822 776.822 352.303 796.076 335.611 813.11C318.921 830.146 298.406 843.662 274.066 853.66C249.726 863.658 221.561 868.657 189.57 868.657C171.315 868.657 154.103 866.621 137.759 862.364C121.417 858.103 106.987 851.068 94.6428 841.439C82.2988 831.811 72.5626 819.406 65.2605 804.409C57.9582 789.412 54.3073 771.267 54.3073 750.529C54.3073 722.016 58.6538 699.243 67.3467 682.578C76.0396 665.914 88.2099 652.767 103.857 643.139C119.505 633.511 138.108 626.661 159.492 622.773C180.877 618.885 204 615.368 228.688 612.403C257.722 608.516 286.236 604.259 314.228 599.629C342.217 595 366.037 587.223 385.51 576.485V689.058H385.683Z" fill="#003080"/>
<path d="M594.827 19.7734H527.37V902.586H594.827V19.7734Z" fill="#003080"/>
<path d="M1044.77 671.358C1044.77 695.429 1041.29 717.461 1034.34 737.46C1027.38 757.639 1017.65 775.228 1004.96 790.228C992.263 805.225 976.79 817.074 958.711 825.59C940.455 834.108 920.287 838.367 897.684 838.367C857.699 838.367 826.751 827.627 804.497 806.52C782.417 785.229 771.29 754.863 771.29 715.424V310.68H683.143V717.834C683.143 780.414 700.181 829.108 734.257 863.919C768.333 898.728 814.581 916.132 872.649 916.132C914.027 916.132 947.582 907.431 973.315 890.024C999.045 872.62 1022.17 849.291 1042.51 819.853H1044.77V902.245H1132.92V310.68H1044.77V671.358Z" fill="#003080"/>
<path d="M2593.18 354.247C2576.5 334.434 2556.16 319.065 2532.17 307.772C2508.16 296.662 2481.04 290.922 2450.45 290.922C2411.33 290.922 2377.94 299.255 2350.82 315.92C2323.52 332.583 2299.36 357.022 2278.51 389.609H2275.2V310.734H2104.12V902.3H2281.64V574.023C2281.64 536.992 2290.49 506.812 2308.24 483.483C2325.97 460.339 2349.78 448.674 2379.51 448.674C2409.24 448.674 2430.28 458.302 2444.89 477.743C2459.3 496.999 2466.6 522.551 2466.6 554.211V902.114H2644.12V515.884C2644.12 482.556 2639.78 452.192 2631.09 424.788C2622.4 397.387 2609.71 373.687 2593.01 354.061L2593.18 354.247Z" fill="#003080"/>
<path d="M2938.48 310.656H2732.63V902.222H2938.48V310.656Z" fill="#003080"/>
<path d="M1833.44 291.328C1798.15 291.328 1766.33 300.587 1737.81 319.102C1709.31 337.616 1685.83 363.17 1667.06 395.757H1664.97C1651.24 364.095 1631.07 338.728 1604.47 319.844C1577.87 300.956 1546.92 291.328 1511.63 291.328C1472.69 291.328 1440 300.587 1413.22 319.102C1386.62 337.616 1365.76 360.392 1350.64 387.61H1347.5V311.14H1221.46V902.706H1347.5V546.657C1347.5 502.589 1357.59 467.226 1377.93 440.933C1398.27 414.457 1425.39 401.311 1459.65 401.311C1490.59 401.311 1514.23 410.939 1530.92 429.824C1547.62 448.895 1555.96 477.41 1555.96 515.551V902.706H1682.01V546.657C1682.01 502.589 1692.09 467.226 1712.43 440.933C1732.78 414.457 1760.08 401.311 1794.15 401.311C1825.1 401.311 1848.74 410.939 1865.43 429.824C1882.13 448.895 1890.47 477.41 1890.47 515.551V902.706H2016.34V502.404C2016.34 436.674 2000.52 385.017 1968.88 347.617C1937.23 310.03 1892.21 291.328 1833.79 291.328H1833.44Z" fill="#003080"/>
<path d="M2835.62 258.395C2902.73 258.395 2956.96 200.441 2956.96 129.157C2956.96 57.8725 2902.55 -0.265625 2835.62 -0.265625C2768.69 -0.265625 2714.09 57.6876 2714.09 129.157C2714.09 200.626 2768.51 258.395 2835.62 258.395Z" fill="#003080"/>
</g>
<path d="M1573.37 1343.15V1159.77L1755.37 1159.75C1773.89 1160.85 1792.39 1168.42 1801.64 1186.22C1810.71 1203.68 1810.86 1231.34 1792.94 1242.63C1790.12 1244.4 1779.84 1247.97 1779.16 1250.39C1777.8 1255.18 1787.84 1256.66 1791.05 1258.09C1803.5 1263.62 1810.17 1271.41 1812.13 1285.79C1817.03 1321.86 1790.29 1342.14 1758.8 1343.17L1573.36 1343.15H1573.37ZM1615.65 1231.92H1750.78C1752.16 1231.92 1756.96 1229.93 1758.32 1229.03C1768.53 1222.3 1767.82 1204.44 1755.61 1200.39C1754.28 1199.95 1750.18 1198.86 1749.07 1198.86H1616.5L1615.65 1199.77V1231.93V1231.92ZM1615.65 1303.47H1758.21C1759.14 1303.47 1764.57 1300.64 1765.55 1299.76C1772.87 1293.2 1771.33 1276.14 1762.78 1270.99C1761.93 1270.47 1757.71 1268.6 1757.06 1268.6H1615.65V1303.47Z" fill="#003080"/>
<path d="M2042.13 1159.98V1199.06H1887.9C1886.85 1199.06 1882.37 1200.46 1881.2 1201.02C1878.76 1202.22 1876.65 1204.55 1875.6 1207.16C1874.96 1208.77 1873.91 1213.43 1873.91 1214.99V1230.02L1874.77 1230.93H2042.13V1270.01H1918.76C1905.81 1270.01 1893.23 1253.47 1882.69 1248.44C1876.64 1245.55 1874.43 1247.39 1873.88 1254.05C1873.21 1262.41 1873.11 1288.34 1875.76 1295.41C1876.87 1298.4 1881.36 1303.67 1884.47 1303.67H2042.13V1343.35L1873.59 1343.38C1843.58 1341.53 1832.8 1324.34 1831.6 1294.38C1830.51 1267.5 1830.42 1234.58 1831.6 1207.75C1832.9 1178.26 1844.41 1161.68 1873.59 1159.95L2042.13 1159.98Z" fill="#003080"/>
<path d="M2686.74 1159.9V1198.98H2532.53C2531.46 1198.98 2526.98 1200.38 2525.81 1200.95C2523.37 1202.14 2521.27 1204.47 2520.22 1207.08C2519.57 1208.7 2518.52 1213.36 2518.52 1214.91V1229.94L2519.38 1230.85H2686.74V1269.93H2563.38C2550.42 1269.93 2537.84 1253.39 2527.31 1248.36C2521.25 1245.48 2519.05 1247.31 2518.51 1253.98C2517.82 1262.34 2517.73 1288.26 2520.37 1295.34C2521.49 1298.33 2525.97 1303.59 2529.1 1303.59H2686.74V1343.27L2518.22 1343.3C2488.2 1341.45 2477.42 1324.27 2476.21 1294.29C2475.14 1267.42 2475.03 1234.51 2476.21 1207.67C2477.52 1178.19 2489.02 1161.6 2518.21 1159.88L2686.74 1159.9Z" fill="#003080"/>
<path d="M2259.8 1159.98V1199.05H2181.84V1343.32H2139.57V1199.95L2138.7 1199.05H2056.15V1159.98H2259.8Z" fill="#003080"/>
<path d="M2462.71 1159.84V1198.92H2384.75V1343.19H2342.47V1199.82L2341.61 1198.92H2259.06V1159.84H2462.71Z" fill="#003080"/>
<path d="M1370.92 1233.57C1373.55 1228.73 1377.4 1224.77 1382.46 1221.71C1387.53 1218.64 1393.3 1217.11 1399.79 1217.11C1406.73 1217.11 1412.97 1218.84 1418.51 1222.3C1424.06 1225.76 1428.41 1230.66 1431.61 1236.99C1434.8 1243.22 1436.4 1250.49 1436.4 1258.8C1436.4 1267.01 1434.8 1274.33 1431.61 1280.76C1428.41 1287.19 1424.01 1292.19 1418.37 1295.74C1412.84 1299.3 1406.63 1301.08 1399.79 1301.08C1393.12 1301.08 1387.25 1299.55 1382.18 1296.49C1377.21 1293.42 1373.45 1289.52 1370.92 1284.76V1299.75H1358.11V1189.95H1370.92V1233.57ZM1423.31 1258.8C1423.31 1252.67 1422.12 1247.33 1419.78 1242.77C1417.44 1238.22 1414.24 1234.76 1410.21 1232.39C1406.26 1230.01 1401.9 1228.83 1397.11 1228.83C1392.42 1228.83 1388.05 1230.06 1384.02 1232.54C1380.07 1234.91 1376.88 1238.42 1374.44 1243.07C1372.09 1247.62 1370.92 1252.91 1370.92 1258.95C1370.92 1265.08 1372.09 1270.47 1374.44 1275.12C1376.88 1279.67 1380.07 1283.18 1384.02 1285.65C1388.05 1288.03 1392.42 1289.21 1397.11 1289.21C1401.9 1289.21 1406.26 1288.03 1410.21 1285.65C1414.24 1283.18 1417.44 1279.67 1419.78 1275.12C1422.12 1270.47 1423.31 1265.03 1423.31 1258.8ZM1519.73 1218.44L1473.26 1338.03H1460.02L1475.23 1298.85L1444.11 1218.44H1458.33L1482.56 1284.31L1506.5 1218.44H1519.73Z" fill="#003080"/>
</g>
<defs>
<clipPath id="clip0_912_2280">
<rect width="2957" height="1360" fill="white"/>
</clipPath>
</defs>
</svg>
